PathFileType	4	(X/Y/Z)	Patient4_TMGait_0pt3_03_left_24.trc.trc
DataRate	CameraRate	NumFrames	NumMarkers	Units	OrigDataRate	OrigDataStartFrame	OrigNumFrames
53.231939163498	53.231939163498	4	33	mm	53.231939163498	89	       141
Frame#	Time	Sacral			L.Shoulder			Chest			R.Shoulder			Neck			R.ASIS			L.ASIS			R.Thigh.Superior			R.Thigh.Lateral			R.Thigh.Inferior			R.Patella			L.Thigh.Superior			L.Thigh.Lateral			L.Thigh.Inferior			L.Patella			L.Shank.Superior			L.Shank.Lateral			L.Shank.Inferior			R.Shank.Superior			R.Shank.Lateral			R.Shank.Inferior			R.Heel			R.Midfoot.Superior			R.Midfoot.Lateral			R.Toe			L.Heel			L.Midfoot.Lateral			L.Midfoot.Superior			L.Toe			L.Elbow			L.Wrist			R.Elbow			R.Wrist			
		X1	Y1	Z1	X2	Y2	Z2	X3	Y3	Z3	X4	Y4	Z4	X5	Y5	Z5	X6	Y6	Z6	X7	Y7	Z7	X8	Y8	Z8	X9	Y9	Z9	X10	Y10	Z10	X11	Y11	Z11	X12	Y12	Z12	X13	Y13	Z13	X14	Y14	Z14	X15	Y15	Z15	X16	Y16	Z16	X17	Y17	Z17	X18	Y18	Z18	X19	Y19	Z19	X20	Y20	Z20	X21	Y21	Z21	X22	Y22	Z22	X23	Y23	Z23	X24	Y24	Z24	X25	Y25	Z25	X26	Y26	Z26	X27	Y27	Z27	X28	Y28	Z28	X29	Y29	Z29	X30	Y30	Z30	X31	Y31	Z31	X32	Y32	Z32	X33	Y33	Z33	

89	43.623142857143	706.755999727886	1009.663896405950	509.227513349160	930.648515105801	1431.953277787645	360.872143438124	993.858750967562	1364.638965236304	539.807407044209	879.433591717194	1444.226216513984	691.882711735760	874.181262039669	1495.059713895590	510.722416190819	914.663527311772	940.872979077661	661.858139353293	941.928368727843	960.223064379743	389.727277006838	972.106958420859	747.147430874075	630.921437533461	894.417236206037	633.155242824419	685.859186673089	981.455557181791	586.154046989639	611.422274717041	988.691398763476	498.560989874998	619.038379467589	946.208574599490	730.523595264026	408.160937758952	842.291313089427	632.106548024601	330.845164390567	906.040720661693	538.113699556097	393.824435803916	892.885921921599	463.993128648309	394.848013223635	842.434526038329	404.169408006984	383.063214277985	723.862347996886	325.815367049141	321.680006490142	735.478645085532	198.753033848422	383.207166075338	962.426863325667	408.300120281480	625.826401385322	892.343967842377	303.706527294350	688.429393908626	938.621501356769	208.716734955747	627.484870251902	808.742533824423	42.605281028407	600.280653882739	979.867853153624	98.008518506202	635.105992390314	892.635551773527	36.933437500090	674.144320767588	1100.241902376922	48.070607923690	661.027311686556	568.039392180536	74.228081336139	408.757050239780	645.071020356713	54.435535861612	334.902967429495	736.220969995026	101.155169424529	365.015638352411	852.818680866308	36.573777221484	345.786198061143	1051.759066478651	1122.621220733035	214.652975084226	1310.998999409558	1101.802022041880	225.673897170408	721.325381553312	1136.185746325927	789.536156848935	693.243344873254	878.354501288639	821.827264866890	
90	43.641928571429	707.169207307277	1010.470544848599	516.136372301019	928.913749308143	1433.030145647042	365.517664538083	994.399358660914	1365.454398911756	543.585352402261	881.738296391989	1444.757605565656	697.070178426038	874.186076723649	1495.914798171158	515.881354294894	916.700591122766	941.273605289514	666.166572017176	940.844795967102	961.183576902134	393.881803548627	971.712137148617	746.285642229202	634.931082584159	892.761942175940	633.062118981444	689.493009104898	978.790503933656	585.383383641152	614.447101721299	985.134976459905	497.917561226127	621.356061130419	948.410449292834	732.182358108824	411.330646278465	846.145687677503	632.525702453366	334.174409078341	912.571491559719	538.894198455958	395.991757373557	900.070646029829	463.560849143533	395.980304261814	847.461149152566	404.549680459973	384.542048642876	726.383349742365	329.817918353346	323.553572341863	735.750908296021	201.822010571812	383.449101940196	958.539412589225	407.899588575611	627.728484220596	888.257046048426	303.260105041150	689.876027269432	933.805523151931	208.409036155500	628.174343116773	803.266326830079	42.614481910826	600.383026121202	974.374689443740	97.895261897529	635.235958174241	887.163784354541	36.918125512465	674.210947560578	1094.810921787518	47.791187942180	661.211861582240	565.226263078232	82.337200269410	408.757736872355	641.265672071382	59.485739728627	334.919437996983	734.073743191822	102.913156342297	364.611319750245	847.465846309089	35.995670270394	345.766326488021	1044.780013129484	1120.302629988638	220.427989908278	1303.630624717124	1090.988933508629	229.535618842638	726.727360228744	1135.539959050397	797.306523465817	701.270784590753	877.637758028165	830.631554932299	
91	43.660714285714	707.353825016377	1011.158405755362	522.986550671905	926.926673561426	1433.951249131284	369.908449833990	994.795569574980	1366.110258672833	547.044724934383	884.028053147451	1445.101935932198	702.003865595026	874.107804128271	1496.651439178526	520.825191964672	918.584293465051	941.607005539137	670.270089058237	939.446159191972	961.991881122409	397.843419441823	971.127495613777	745.365139288189	638.704387621398	891.016581564716	632.920569435329	693.000169921547	975.950197010573	584.592065351996	617.261864047594	981.417698539442	497.253786869696	623.551715737986	951.120599644118	734.059137176749	414.554578753063	851.102877509254	632.798713785629	337.536882714829	920.426079692573	539.832364250094	398.409003366668	908.679027741153	463.183927678124	397.343767780441	853.825608654704	404.945626637908	386.224063180880	730.228635119608	334.213433728990	325.581929051008	736.919498826137	205.390276169902	383.899728481442	954.507613720730	407.491189549159	629.542076276875	884.050910602063	302.806345642105	691.242045364256	928.917948535205	208.110643391667	628.819695597566	797.739909923052	42.636441310804	600.461314748998	968.846022125374	97.778419428679	635.354807195449	881.645701159594	36.909936311852	674.253755410066	1089.332498724438	47.481690286767	661.384819531571	563.128599215261	91.768700902230	408.952929267946	637.928714540421	65.668506156980	335.066847735248	732.454586248085	105.242214765077	364.372766593573	842.155978699809	35.313438947838	345.770661100049	1036.916245994397	1117.523569938919	226.254575482323	1294.915618998455	1078.432664632606	233.528678979064	732.541027767610	1134.447608698725	804.811300392871	709.879696965657	876.456774354837	839.037710494083	
92	43.679500000000	707.294014646743	1011.678054920346	529.735052322558	924.684191979932	1434.662480323254	374.021115785502	995.012342250136	1366.566781093411	550.174307421920	886.239033615659	1445.213203083574	706.652449395743	873.929256961194	1497.226882517778	525.518194234837	920.306633677598	941.847387799545	674.149175992403	937.736002085646	962.622675275640	401.595492106896	970.494242539569	744.445788848805	642.168743443024	889.401043632269	632.720812865521	696.329018573145	973.191344660957	583.808804675101	619.821469959792	977.832874960276	496.546642772127	625.588614845881	954.274450660343	736.164470271930	417.865479054744	857.089595987276	632.979620396475	340.953913519454	929.441311806325	541.000848653038	401.161041753844	918.552742399320	462.956628997145	399.043967225088	861.421862303955	405.416366051487	388.178251555552	735.345807328272	339.019798514296	327.826401593726	738.960147842363	209.505229732842	384.648349984361	950.555664525647	407.046932674629	631.229988974360	879.901064514882	302.358423874073	692.518544278313	924.055605928200	207.802061381969	629.399951118910	792.164221753152	42.677005401715	600.519875290543	963.288963116584	97.657165589544	635.457478194752	876.080241926588	36.914133981790	674.278157919717	1083.810038823771	47.139408601508	661.543208223545	561.830369912318	102.516181912546	409.453157961572	635.138595594516	73.062387234607	335.434858085638	731.381347501089	108.262124331480	364.389726904248	836.940849270575	34.560052084978	345.819458465391	1028.216023991251	1114.305765950846	232.092165540448	1284.694628444306	1064.101480306461	237.638804619444	738.787856599677	1132.826093205816	811.996138025052	719.206436375834	874.719220161818	847.025369221048	
